<svg xmlns="http://www.w3.org/2000/svg" viewBox="0 0 64 64">
  <!-- Background Circle (Deep Teal) -->
  <circle cx="32" cy="32" r="32" fill="#164e63" />
  
  <!-- Elegant 'M' (White) -->
  <path 
    d="M16 46 C 16 46, 18 24, 23 24 C 28 24, 32 38, 32 38 C 32 38, 36 24, 41 24 C 46 24, 48 46, 48 46" 
    fill="none" 
    stroke="#ffffff" 
    stroke-width="4.5" 
    stroke-linecap="round" 
    stroke-linejoin="round"
  />
  
  <!-- Golden Arrow tail with loop -->
  <path 
    d="M26 44 C 22 46, 22 38, 28 40 L 45 23" 
    fill="none" 
    stroke="#eab308" 
    stroke-width="5" 
    stroke-linecap="round"
  />
  
  <!-- Arrow Head -->
  <polygon points="47,19 47,29 38,26" fill="#eab308" />
  
  <!-- Small Golden Star -->
  <path 
    d="M 48 8 L 49.5 11.5 L 53 11.5 L 50 14 L 51 17.5 L 48 15.5 L 45 17.5 L 46 14 L 43 11.5 L 46.5 11.5 Z" 
    fill="#eab308" 
  />
</svg>
